<mxfile host="65bd71144e">
    <diagram id="qNCBG56Wal9lpIg-BMhp" name="Page-1">
        <mxGraphModel dx="591" dy="288" grid="1" gridSize="10" guides="1" tooltips="1" connect="1" arrows="1" fold="1" page="1" pageScale="1" pageWidth="850" pageHeight="1100" math="0" shadow="0">
            <root>
                <mxCell id="0"/>
                <mxCell id="1" parent="0"/>
                <mxCell id="39" value="Plant" style="swimlane;childLayout=stackLayout;horizontal=1;startSize=30;horizontalStack=0;rounded=1;fontSize=14;fontStyle=0;strokeWidth=2;resizeParent=0;resizeLast=1;shadow=0;dashed=0;align=center;fillStyle=dashed;" vertex="1" parent="1">
                    <mxGeometry x="340" y="150" width="160" height="120" as="geometry"/>
                </mxCell>
                <mxCell id="40" value="+id&#10;+name&#10;+description&#10;+water_tips&#10;+photo" style="align=left;strokeColor=none;fillColor=none;spacingLeft=4;fontSize=12;verticalAlign=top;resizable=0;rotatable=0;part=1;fillStyle=dashed;" vertex="1" parent="39">
                    <mxGeometry y="30" width="160" height="90" as="geometry"/>
                </mxCell>
            </root>
        </mxGraphModel>
    </diagram>
</mxfile>
